PathFileType	4	(X/Y/Z)	c:/Users/goper/Files/vsCode/490R/osim_files/C03/C03_SSW_06.trc
DataRate	CameraRate	NumFrames	NumMarkers	Units                	OrigDataRate	OrigDataStartFrame	OrigNumFrames
250.00	250.00	8	36	mm	250.0	2047	2339
                Frame#	Time	LPSIS			LASIS			LTH1			LTH2			LTH3			LTH4			LLFE			LMFE			LSH1			LSH2			LSH3			LSH4			LLMAL			LMMAL			LCAL			LMTP5			LTOE			LMTP1			RPSIS			RASIS			RTH1			RTH2			RTH3			RTH4			RLFE			RMFE			RSH1			RSH2			RSH3			RSH4			RLMAL			RMMAL			RCAL			RMTP1			RTOE			RMTP5		
		X1	Y1	Z1	X2	Y2	Z2	X3	Y3	Z3	X4	Y4	Z4	X5	Y5	Z5	X6	Y6	Z6	X7	Y7	Z7	X8	Y8	Z8	X9	Y9	Z9	X10	Y10	Z10	X11	Y11	Z11	X12	Y12	Z12	X13	Y13	Z13	X14	Y14	Z14	X15	Y15	Z15	X16	Y16	Z16	X17	Y17	Z17	X18	Y18	Z18	X19	Y19	Z19	X20	Y20	Z20	X21	Y21	Z21	X22	Y22	Z22	X23	Y23	Z23	X24	Y24	Z24	X25	Y25	Z25	X26	Y26	Z26	X27	Y27	Z27	X28	Y28	Z28	X29	Y29	Z29	X30	Y30	Z30	X31	Y31	Z31	X32	Y32	Z32	X33	Y33	Z33	X34	Y34	Z34	X35	Y35	Z35	X36	Y36	Z36

2047	8.18400	0.00000	0.00000	0.00000	-3612.88452	953.41461	313.97031	0.00000	0.00000	0.00000	-3628.40503	539.63550	353.36633	-3673.81104	618.88837	353.16937	-3688.54565	560.44373	342.76508	-3670.55420	467.74182	336.53174	0.00000	0.00000	0.00000	0.00000	0.00000	0.00000	-3678.09009	273.30234	345.44125	0.00000	0.00000	0.00000	0.00000	0.00000	0.00000	0.00000	0.00000	0.00000	-3791.77539	546.69720	233.21628	0.00000	0.00000	0.00000	-3920.70850	106.01981	223.82832	0.00000	0.00000	0.00000	0.00000	0.00000	0.00000	-3415.68335	992.35291	182.57664	-3581.81055	948.98517	103.24774	0.00000	0.00000	0.00000	-3341.68677	553.23206	132.24942	-3420.02271	595.50690	86.71590	-3410.99707	534.53711	94.87749	-3377.43848	462.06897	117.18368	-3381.61719	481.21011	224.58340	-3201.51538	346.27328	115.76814	-3177.40088	303.29584	118.26652	-3253.44092	310.08295	106.43149	-3229.42310	279.75687	109.39967	-3133.77930	145.74123	139.49782	-3147.65112	147.86139	219.20958	-3048.16016	124.23952	176.90436	-3235.15088	53.29274	228.73299	0.00000	0.00000	0.00000	-3208.12109	41.46640	123.66447
2048	8.18800	-3431.14868	996.14948	295.35031	-3619.60571	953.66516	314.53101	-3611.45142	597.65637	366.12314	-3632.38428	539.53046	353.85431	-3678.75342	618.29352	353.12289	-3692.81934	559.66010	342.92892	-3673.95996	467.16714	337.68115	0.00000	0.00000	0.00000	0.00000	0.00000	0.00000	0.00000	0.00000	0.00000	0.00000	0.00000	0.00000	-3922.20679	102.60303	223.55518	0.00000	0.00000	0.00000	-3796.53711	547.04047	233.47343	0.00000	0.00000	0.00000	0.00000	0.00000	0.00000	-3264.22681	55.78792	191.23672	0.00000	0.00000	0.00000	-3422.17212	992.10419	182.76736	-3588.59497	948.53674	103.69447	0.00000	0.00000	0.00000	-3348.97461	552.35107	132.92386	-3427.12134	595.01398	87.01707	-3418.16455	533.98346	95.06250	-3384.40063	461.39499	116.98612	-3389.36182	480.14154	224.24947	-3207.72681	347.90857	116.31133	-3182.76196	306.83435	119.78341	-3258.20239	311.28162	106.38196	-3230.24463	278.33627	109.54253	-3136.46216	147.99783	139.14107	-3151.45532	149.81628	218.71986	-3050.59253	127.89436	177.02730	-3236.35376	53.53653	228.86424	0.00000	0.00000	0.00000	-3208.31177	41.65494	123.63444
2049	8.19200	-3433.40918	995.76440	294.06256	-3626.26733	953.95221	315.01758	-3615.79028	597.81824	366.47623	-3636.43530	539.57355	354.42346	-3683.58887	617.86157	353.31940	-3696.96094	558.99683	343.30765	-3677.43994	466.62231	338.80127	0.00000	0.00000	0.00000	0.00000	0.00000	0.00000	0.00000	0.00000	0.00000	0.00000	0.00000	0.00000	-3923.70630	99.58628	223.35645	0.00000	0.00000	0.00000	-3801.32129	547.51709	233.71307	0.00000	0.00000	0.00000	-3238.07275	278.18442	109.16927	0.00000	0.00000	0.00000	0.00000	0.00000	0.00000	-3429.06079	991.91949	182.97084	-3595.36719	948.30103	104.12168	-3372.98804	610.17462	118.46223	-3356.45874	551.44702	133.51517	-3434.41797	594.62067	87.29781	-3425.74048	533.50464	95.09030	-3391.81689	460.74023	116.65512	-3397.35864	479.08203	223.91135	-3213.18359	349.68140	116.69555	-3187.40918	308.94897	120.03145	-3264.50195	311.36282	106.00758	0.00000	0.00000	0.00000	-3139.51929	150.24323	138.81389	-3154.13208	152.06554	218.17981	-3052.61963	131.80275	176.99635	-3237.01025	53.75957	228.72496	0.00000	0.00000	0.00000	-3208.51147	41.89849	123.61064
2050	8.19600	0.00000	0.00000	0.00000	-3632.99634	954.38849	315.46066	-3620.33740	598.23004	366.88132	-3640.34888	539.60217	355.14709	-3688.22241	617.42694	353.65839	-3701.15039	558.49475	344.01743	-3681.28442	466.35315	339.74567	0.00000	0.00000	0.00000	0.00000	0.00000	0.00000	0.00000	0.00000	0.00000	0.00000	0.00000	0.00000	-3925.22632	96.79848	223.00534	0.00000	0.00000	0.00000	-3806.22314	547.98126	233.98012	0.00000	0.00000	0.00000	0.00000	0.00000	0.00000	-3242.68848	279.83911	109.02454	0.00000	0.00000	0.00000	0.00000	0.00000	0.00000	-3602.04907	948.03333	104.57174	0.00000	0.00000	0.00000	-3364.17334	550.45367	134.08409	-3441.87231	594.28876	87.50611	-3433.32715	533.01337	95.11756	-3399.22095	460.14059	116.19510	-3405.67407	478.03912	223.44582	-3218.23145	351.73322	116.90036	-3192.02588	311.40286	120.54399	-3269.50195	312.66403	106.06224	0.00000	0.00000	0.00000	-3140.35376	153.60402	139.12489	-3159.00269	154.13562	217.89444	-3055.50708	135.92442	177.21718	-3237.29224	53.83053	228.68237	0.00000	0.00000	0.00000	-3208.78198	42.24649	123.60994
2051	8.20000	-3449.96045	997.61792	296.01242	-3639.61377	954.84412	315.83942	-3624.98267	598.76947	367.40900	-3644.43799	539.87634	356.06863	-3693.05884	617.24811	354.37115	-3705.48706	558.16937	345.02783	-3685.43433	466.11447	340.54080	0.00000	0.00000	0.00000	0.00000	0.00000	0.00000	0.00000	0.00000	0.00000	0.00000	0.00000	0.00000	-3926.51270	94.27440	222.64185	0.00000	0.00000	0.00000	-3810.96216	548.27490	234.41127	0.00000	0.00000	0.00000	-3247.44775	281.59473	108.93034	0.00000	0.00000	0.00000	0.00000	0.00000	0.00000	-3442.06494	991.97314	183.22354	-3608.55786	947.71606	104.97823	-3388.12451	608.68774	119.69343	-3372.09399	549.53717	134.54430	-3449.34204	593.95209	87.70028	-3441.08398	532.63330	95.05947	-3406.81299	459.48514	115.69382	-3414.05151	476.82669	223.00093	-3225.50293	353.25507	117.73071	-3197.83667	313.47372	120.81635	-3274.51953	314.17572	106.04787	0.00000	0.00000	0.00000	-3143.75562	155.96123	138.85291	-3162.31323	156.48767	217.17137	-3058.18604	140.27574	177.60057	-3238.37524	53.79964	228.54965	0.00000	0.00000	0.00000	-3209.00000	42.64162	123.61997
2052	8.20400	0.00000	0.00000	0.00000	-3646.10449	955.35681	316.09409	-3629.47559	599.35114	368.05255	-3648.81104	540.33698	357.05298	-3697.87012	617.23822	355.22043	-3709.86328	558.02661	346.21960	-3689.80444	466.07260	341.12155	0.00000	0.00000	0.00000	0.00000	0.00000	0.00000	-3950.12891	110.88995	262.34399	0.00000	0.00000	0.00000	-3927.75610	91.95754	222.31221	0.00000	0.00000	0.00000	-3815.66821	548.50653	234.84744	0.00000	0.00000	0.00000	0.00000	0.00000	0.00000	-3201.80200	308.15164	131.56682	0.00000	0.00000	0.00000	-3448.80664	992.13110	183.46381	-3615.18384	947.61407	105.46532	-3396.01196	608.03033	120.24886	-3380.19678	548.67920	134.85579	-3456.93335	593.56964	87.85092	-3448.89771	532.23615	94.89281	-3414.60254	458.92099	115.01639	-3422.80640	475.54993	222.47887	-3231.13159	355.59528	118.18555	-3203.91211	315.75479	121.41837	-3282.74731	314.57477	104.75948	0.00000	0.00000	0.00000	-3147.36108	158.47368	138.60323	-3166.41992	158.74292	216.68532	-3060.19897	145.33958	177.45790	-3238.64844	53.83545	228.66518	0.00000	0.00000	0.00000	-3209.30273	43.10173	123.61121
2053	8.20800	0.00000	0.00000	0.00000	-3652.63867	956.07690	316.38605	-3634.15747	600.06921	368.86359	-3653.17651	540.91876	358.08829	-3702.54956	617.38837	356.22678	-3714.22900	558.08331	347.45517	-3694.57690	466.34464	341.46451	0.00000	0.00000	0.00000	0.00000	0.00000	0.00000	-3951.58691	108.42221	261.93863	0.00000	0.00000	0.00000	-3928.68188	89.75986	221.93074	0.00000	0.00000	0.00000	-3820.10400	548.78546	235.22073	0.00000	0.00000	0.00000	-3271.08936	67.51330	211.35767	0.00000	0.00000	0.00000	0.00000	0.00000	0.00000	-3455.21631	992.55835	183.61284	-3621.84937	947.54517	105.95717	-3403.73975	607.08527	121.05075	-3388.41846	547.71777	135.11012	-3464.65552	593.30560	87.88362	-3456.89355	531.82825	94.62192	-3422.46924	458.32639	114.26427	-3431.90820	474.24835	220.35019	-3237.51758	357.68237	118.76737	-3209.25806	318.17908	121.77759	-3286.80029	317.62338	102.53876	-3255.53027	286.47696	108.21977	-3150.63379	161.37724	138.03093	-3171.37646	161.16969	216.36919	-3063.94824	150.04701	177.71773	-3239.50708	54.00519	228.23471	0.00000	0.00000	0.00000	-3209.80981	43.77989	123.58739
2054	8.21200	0.00000	0.00000	0.00000	-3659.11377	956.85559	316.60187	-3638.85107	600.95001	369.73245	-3657.57642	541.61591	359.17880	-3707.41968	617.79480	357.49750	-3718.65771	558.35272	348.77539	-3699.03931	466.61005	341.75659	0.00000	0.00000	0.00000	0.00000	0.00000	0.00000	-3952.94824	106.39885	261.53561	0.00000	0.00000	0.00000	-3929.54980	87.82965	221.49420	0.00000	0.00000	0.00000	0.00000	0.00000	0.00000	-3212.30298	311.89160	134.09601	0.00000	0.00000	0.00000	-3786.51685	105.79402	315.34030	0.00000	0.00000	0.00000	-3461.85425	992.74805	183.89980	-3628.59033	947.62445	106.48724	-3411.87573	606.16467	121.68437	-3396.80420	546.57562	135.63226	-3472.52759	593.01343	87.93176	-3465.03516	531.42322	94.32624	-3430.51123	457.77606	113.73240	-3441.06128	472.92252	219.94534	-3244.09204	359.71426	119.32288	-3215.97900	320.50998	122.49525	-3294.33081	317.93701	102.83378	-3261.64697	288.24634	107.69709	-3155.20142	163.94138	138.06839	-3176.50977	162.81050	214.61089	-3068.78589	154.78679	178.03160	-3240.65991	54.17572	228.52890	0.00000	0.00000	0.00000	-3210.64258	44.56654	123.58006
